<?xml version="1.0" encoding="UTF-8"?>
<svg width="20" height="20" viewBox="0 0 20 20" fill="none" xmlns="http://www.w3.org/2000/svg">
    <path d="M15.8333 6.66667H14.1667V5C14.1667 2.70833 12.2917 0.833332 10 0.833332C7.70834 0.833332 5.83334 2.70833 5.83334 5V6.66667H4.16667C3.25 6.66667 2.5 7.41667 2.5 8.33333V16.6667C2.5 17.5833 3.25 18.3333 4.16667 18.3333H15.8333C16.75 18.3333 17.5 17.5833 17.5 16.6667V8.33333C17.5 7.41667 16.75 6.66667 15.8333 6.66667ZM10 14.1667C9.08334 14.1667 8.33334 13.4167 8.33334 12.5C8.33334 11.5833 9.08334 10.8333 10 10.8333C10.9167 10.8333 11.6667 11.5833 11.6667 12.5C11.6667 13.4167 10.9167 14.1667 10 14.1667ZM12.5833 6.66667H7.41667V5C7.41667 3.58333 8.58334 2.41667 10 2.41667C11.4167 2.41667 12.5833 3.58333 12.5833 5V6.66667Z" fill="#666666"/>
</svg> 