<?xml version="1.0" encoding="UTF-8"?>
<svg width="24" height="24" viewBox="0 0 24 24" fill="none" xmlns="http://www.w3.org/2000/svg">
    <path d="M22.2647 2.42778C21.98 2.19091 21.6364 2.03953 21.2725 1.98723C20.9086 1.93493 20.5371 1.98353 20.1973 2.12778L2.19733 9.12778C1.83973 9.27986 1.53092 9.52886 1.30223 9.84827C1.07354 10.1677 0.933978 10.5456 0.897924 10.9409C0.86187 11.3362 0.930413 11.7342 1.09674 12.0939C1.26307 12.4537 1.52174 12.7619 1.84733 12.9878L5.84733 15.5378L8.39733 21.5378C8.56862 21.8897 8.82806 22.1898 9.14925 22.4089C9.47044 22.628 9.84129 22.7584 10.2273 22.7878C10.6134 22.8171 11.0005 22.7445 11.3496 22.5767C11.6988 22.4089 11.9973 22.1514 12.2173 21.8278L14.7673 17.8278L19.8473 21.3778C20.1549 21.5868 20.5148 21.7051 20.8876 21.7200C21.2604 21.7349 21.6297 21.6458 21.9526 21.4625C22.2754 21.2792 22.5392 21.0087 22.7144 20.6812C22.8896 20.3536 22.9697 19.9821 22.9473 19.6078L21.9473 3.60778C21.9229 3.23775 21.8008 2.88157 21.5931 2.57641C21.3854 2.27125 21.0996 2.02772 20.7673 1.86778L22.2647 2.42778ZM9.89733 14.9878L7.34733 20.9878L4.79733 14.9878L15.7673 8.17778L9.89733 14.9878ZM16.8973 19.8278L11.8173 16.2778L17.6873 9.46778L20.9473 3.60778L21.9473 19.6078L16.8973 19.8278Z" fill="white"/>
</svg> 