<?xml version="1.0" encoding="UTF-8"?>
<svg width="24" height="24" viewBox="0 0 24 24" fill="none" xmlns="http://www.w3.org/2000/svg">
    <path d="M22.0617 6.93125C21.9422 6.49021 21.7078 6.0886 21.3815 5.76225C21.0551 5.43591 20.6535 5.20147 20.2125 5.08203C18.6727 4.64062 12 4.64062 12 4.64062C12 4.64062 5.32734 4.64062 3.78751 5.08203C3.34647 5.20147 2.94487 5.43591 2.61852 5.76225C2.29218 6.0886 2.05774 6.49021 1.93829 6.93125C1.49688 8.47109 1.49688 12 1.49688 12C1.49688 12 1.49688 15.5289 1.93829 17.0687C2.05774 17.5098 2.29218 17.9114 2.61852 18.2377C2.94487 18.5641 3.34647 18.7985 3.78751 18.918C5.32734 19.3594 12 19.3594 12 19.3594C12 19.3594 18.6727 19.3594 20.2125 18.918C20.6535 18.7985 21.0551 18.5641 21.3815 18.2377C21.7078 17.9114 21.9422 17.5098 22.0617 17.0687C22.5031 15.5289 22.5031 12 22.5031 12C22.5031 12 22.5031 8.47109 22.0617 6.93125ZM9.90469 15.1406V8.85937L15.3492 12L9.90469 15.1406Z" fill="white"/>
</svg> 